<svg width="176" height="39" viewBox="0 0 176 39" fill="none" xmlns="http://www.w3.org/2000/svg">
  <g clip-path="url(#clip0_892_19101)">
    <path fill-rule="evenodd" clip-rule="evenodd" d="M46.637 25.5904V6.85734C46.637 3.07022 43.5576 0 39.7593 0H6.87769C3.07933 0 0 3.07022 0 6.85734V25.5872C0 29.3744 3.07933 32.4446 6.87769 32.4446H20.8363L31.1934 38.1985C31.5061 38.3731 31.8906 38.1487 31.8906 37.7902V14.9958C31.8906 14.8274 31.7999 14.6716 31.6499 14.5874L20.8363 8.58103H37.721C37.8929 8.58103 38.0336 8.7213 38.0336 8.89273V32.2919C38.0336 32.3791 38.1024 32.4477 38.1899 32.4477H39.7593C43.5576 32.4477 46.637 29.3775 46.637 25.5904ZM85.3177 30.0882V18.6239L85.3146 18.627C85.3146 12.5926 81.7382 9.85899 76.9144 9.85899C74.1258 9.85899 71.753 10.7567 70.2087 12.4056V2.28786H65.5006V30.0913H70.2087V19.9736C70.2087 15.9651 72.4689 13.9422 75.8234 13.9422C78.8402 13.9422 80.6096 15.6659 80.6096 19.2255V30.0882H85.3177ZM107.395 18.3683V30.0913H102.95V27.6569C101.818 29.3806 99.6327 30.3531 96.619 30.3531C92.0234 30.3531 89.1223 27.8439 89.1223 24.3592C89.1223 20.8744 91.3826 18.4026 97.4849 18.4026H102.684V18.1034C102.684 15.3667 101.027 13.7583 97.6725 13.7583C95.4123 13.7583 93.077 14.5064 91.5701 15.7438L89.7225 12.3339C91.8703 10.685 94.9965 9.86211 98.2384 9.86211C104.041 9.86211 107.395 12.5957 107.395 18.3683ZM102.687 23.8324V21.5102H97.8257C94.6245 21.5102 93.7554 22.7103 93.7554 24.169C93.7554 25.8553 95.1872 26.9431 97.5975 26.9431C100.008 26.9431 101.893 25.8927 102.684 23.8324H102.687ZM122.501 30.0913L131.129 10.0834H131.126H126.606L120.163 24.9202L113.91 10.0834H109.011L117.64 30.0913H122.501ZM152.341 21.5851H152.338C152.375 21.1367 152.413 20.5743 152.413 20.2011C152.413 13.9422 148.23 9.85899 142.24 9.85899C136.25 9.85899 131.842 14.1292 131.842 20.0889C131.842 26.0486 136.213 30.3562 142.956 30.3562C146.423 30.3562 149.249 29.231 151.056 27.0959L148.533 24.2095C147.104 25.6714 145.332 26.3821 143.072 26.3821C139.567 26.3821 137.119 24.5088 136.553 21.5851H152.338L152.338 21.5882L152.341 21.5851ZM136.516 18.4743H147.933C147.555 15.588 145.332 13.6025 142.243 13.6025C139.154 13.6025 136.969 15.5506 136.516 18.4743ZM176 30.0882V18.6239H175.997C175.997 12.5895 172.42 9.85587 167.597 9.85587C164.658 9.85587 162.21 10.8315 160.666 12.6674V10.0834H156.183V30.0913H160.891V19.9736C160.891 15.9651 163.151 13.9422 166.506 13.9422C169.522 13.9422 171.292 15.6659 171.292 19.2255V30.0882H176Z" fill="#ECBA60"/>
  </g>
  <defs>
    <clipPath id="clip0_892_19101">
      <rect width="176" height="38.2609" fill="white"/>
    </clipPath>
  </defs>
</svg>