<svg width="40" height="40" viewBox="0 0 40 40" fill="none" xmlns="http://www.w3.org/2000/svg">
  <g id="Icon">
    <path id="vector" fill-rule="evenodd" clip-rule="evenodd" d="M19.881 8.33341C13.5035 8.33341 8.33341 13.5035 8.33341 19.881C8.33341 26.2586 13.5035 31.4287 19.881 31.4287C26.2586 31.4287 31.4287 26.2586 31.4287 19.881C31.4287 13.5035 26.2586 8.33341 19.881 8.33341ZM6.66675 19.881C6.66675 12.583 12.583 6.66675 19.881 6.66675C27.1791 6.66675 33.0953 12.583 33.0953 19.881C33.0953 27.1791 27.1791 33.0953 19.881 33.0953C12.583 33.0953 6.66675 27.1791 6.66675 19.881ZM19.8813 19.0479C20.3415 19.0479 20.7146 19.421 20.7146 19.8813V26.5479C20.7146 27.0082 20.3415 27.3813 19.8813 27.3813C19.421 27.3813 19.0479 27.0082 19.0479 26.5479V19.8813C19.0479 19.421 19.421 19.0479 19.8813 19.0479ZM19.7616 15.1191C19.7616 15.0534 19.8149 15.0001 19.8807 15.0001C19.9464 15.0001 19.9997 15.0534 19.9997 15.1191C19.9997 15.1849 19.9464 15.2382 19.8807 15.2382C19.8149 15.2382 19.7616 15.1849 19.7616 15.1191ZM19.8807 13.3334C18.8945 13.3334 18.095 14.1329 18.095 15.1191C18.095 16.1054 18.8945 16.9048 19.8807 16.9048C20.8669 16.9048 21.6664 16.1054 21.6664 15.1191C21.6664 14.1329 20.8669 13.3334 19.8807 13.3334Z" fill="#6C6E74"/>
  </g>
</svg>
