<svg width="1092" height="772" viewBox="0 0 1092 772" fill="none" xmlns="http://www.w3.org/2000/svg">
<g opacity="0.5">
<path d="M481.141 498.387C481.009 498.983 479.672 499.233 477.782 499.115C476.829 499.056 475.942 499.622 475.594 500.511C474.904 502.273 474.114 503.38 473.517 503.249C472.921 503.118 472.671 501.78 472.789 499.89C472.848 498.937 472.282 498.05 471.393 497.702C469.63 497.012 468.519 496.221 468.651 495.624C468.784 495.025 470.124 494.775 472.012 494.893C472.967 494.954 473.855 494.388 474.203 493.498C474.893 491.733 475.684 490.626 476.28 490.759C476.876 490.89 477.126 492.227 477.008 494.118C476.949 495.073 477.515 495.96 478.406 496.308C480.167 496.995 481.274 497.786 481.142 498.386L481.141 498.387Z" fill="#2E3137"/>
<path d="M460.456 466.514C461.427 465.528 461.415 463.942 460.429 462.971C459.443 462 457.857 462.012 456.886 462.998C455.915 463.984 455.927 465.57 456.913 466.541C457.899 467.512 459.485 467.499 460.456 466.514Z" fill="#16181D"/>
<path d="M687.923 237.426C688.951 236.139 688.742 234.263 687.455 233.235C686.168 232.207 684.292 232.417 683.264 233.703C682.236 234.99 682.446 236.867 683.732 237.894C685.019 238.922 686.896 238.713 687.923 237.426Z" fill="#16181D"/>
<path d="M671.519 502.971C673 502.251 673.617 500.466 672.896 498.985C672.176 497.504 670.391 496.887 668.91 497.608C667.429 498.328 666.813 500.113 667.533 501.594C668.254 503.075 670.038 503.692 671.519 502.971Z" fill="#2E3137"/>
<path d="M507.003 556.806C508.031 555.519 507.821 553.643 506.535 552.615C505.248 551.587 503.372 551.796 502.344 553.083C501.316 554.37 501.525 556.246 502.812 557.274C504.099 558.302 505.975 558.092 507.003 556.806Z" fill="#16181D"/>
<path d="M744.696 262.573C745.095 260.975 744.123 259.356 742.525 258.957C740.927 258.558 739.308 259.53 738.909 261.128C738.51 262.726 739.482 264.345 741.08 264.744C742.678 265.143 744.297 264.171 744.696 262.573Z" fill="#16181D"/>
<path d="M734.402 492.586C735.43 491.3 735.22 489.423 733.933 488.395C732.647 487.367 730.77 487.577 729.742 488.864C728.714 490.151 728.924 492.027 730.211 493.055C731.498 494.083 733.374 493.873 734.402 492.586Z" fill="#16181D"/>
<path d="M563.004 187.549C563.492 186.856 563.325 185.899 562.633 185.411C561.94 184.923 560.982 185.089 560.495 185.782C560.007 186.475 560.173 187.432 560.866 187.92C561.559 188.408 562.516 188.242 563.004 187.549Z" fill="#2E3137"/>
<path d="M458.557 273.583C458.641 272.74 458.027 271.987 457.183 271.903C456.34 271.818 455.588 272.433 455.503 273.276C455.419 274.119 456.033 274.871 456.877 274.956C457.72 275.041 458.472 274.426 458.557 273.583Z" fill="#2E3137"/>
<path d="M608.784 217.08C609.846 216.219 610.008 214.66 609.147 213.598C608.286 212.536 606.727 212.374 605.665 213.235C604.603 214.097 604.441 215.656 605.302 216.717C606.163 217.779 607.722 217.942 608.784 217.08Z" fill="#16181D"/>
<path d="M704.565 560.678C704.422 562.038 703.205 563.026 701.845 562.884C700.486 562.741 699.497 561.524 699.64 560.164C699.782 558.804 700.999 557.816 702.359 557.958C703.719 558.101 704.707 559.318 704.565 560.678Z" fill="#16181D"/>
<path d="M735.611 215.171C735.611 215.794 734.336 216.336 732.429 216.635C731.467 216.786 730.709 217.544 730.558 218.506C730.259 220.412 729.715 221.689 729.094 221.689C728.472 221.689 727.928 220.413 727.63 218.506C727.479 217.544 726.721 216.786 725.759 216.635C723.852 216.336 722.572 215.793 722.572 215.171C722.572 214.549 723.85 214.002 725.756 213.705C726.72 213.555 727.479 212.796 727.63 211.832C727.928 209.924 728.472 208.648 729.094 208.648C729.715 208.648 730.259 209.924 730.558 211.832C730.709 212.796 731.468 213.554 732.431 213.705C734.336 214.002 735.611 214.546 735.611 215.171Z" fill="#2E3137"/>
<path d="M708.621 464.988C708.621 465.611 707.346 466.153 705.439 466.451C704.476 466.603 703.718 467.36 703.567 468.323C703.269 470.229 702.725 471.505 702.104 471.505C701.482 471.505 700.938 470.23 700.64 468.323C700.489 467.36 699.731 466.603 698.769 466.451C696.861 466.153 695.582 465.609 695.582 464.988C695.582 464.366 696.86 463.819 698.766 463.521C699.73 463.372 700.489 462.612 700.64 461.649C700.938 459.741 701.482 458.465 702.104 458.465C702.725 458.465 703.269 459.741 703.567 461.649C703.718 462.612 704.478 463.37 705.441 463.521C707.346 463.819 708.621 464.362 708.621 464.988Z" fill="#16181D"/>
<path d="M517.705 224.366C517.705 224.989 516.43 225.531 514.523 225.83C513.56 225.981 512.803 226.739 512.651 227.701C512.353 229.607 511.809 230.884 511.188 230.884C510.566 230.884 510.022 229.608 509.724 227.701C509.573 226.739 508.815 225.981 507.853 225.83C505.946 225.531 504.666 224.988 504.666 224.366C504.666 223.744 505.944 223.197 507.85 222.9C508.814 222.75 509.573 221.991 509.724 221.027C510.022 219.119 510.566 217.843 511.188 217.843C511.809 217.843 512.353 219.119 512.651 221.027C512.803 221.991 513.562 222.749 514.525 222.9C516.43 223.197 517.705 223.74 517.705 224.366Z" fill="#16181D"/>
<path d="M449.492 173.504C449.492 174.127 448.217 174.669 446.31 174.968C445.347 175.119 444.59 175.877 444.438 176.839C444.14 178.745 443.596 180.022 442.975 180.022C442.353 180.022 441.809 178.746 441.511 176.839C441.36 175.877 440.602 175.119 439.64 174.968C437.733 174.669 436.453 174.126 436.453 173.504C436.453 172.882 437.731 172.335 439.637 172.038C440.601 171.888 441.36 171.129 441.511 170.165C441.809 168.257 442.353 166.981 442.975 166.981C443.596 166.981 444.14 168.257 444.438 170.165C444.59 171.129 445.349 171.887 446.312 172.038C448.217 172.335 449.492 172.879 449.492 173.504Z" fill="#16181D"/>
<path d="M557.76 521.13C557.76 521.753 556.484 522.295 554.577 522.594C553.615 522.745 552.857 523.503 552.706 524.465C552.407 526.371 551.864 527.648 551.242 527.648C550.62 527.648 550.077 526.372 549.778 524.465C549.627 523.503 548.869 522.745 547.907 522.594C546 522.295 544.721 521.752 544.721 521.13C544.721 520.508 545.999 519.961 547.905 519.664C548.868 519.514 549.627 518.755 549.778 517.791C550.077 515.883 550.62 514.607 551.242 514.607C551.864 514.607 552.407 515.883 552.706 517.791C552.857 518.755 553.616 519.513 554.58 519.664C556.484 519.961 557.76 520.505 557.76 521.13Z" fill="#16181D"/>
<path d="M490.538 311.323C490.538 311.323 486.986 313.211 482.87 313.46C478.755 313.707 478.589 321.223 485.92 321.26C493.25 321.297 495.651 318.651 495.651 318.651C495.651 318.651 489.258 322.757 486.578 324.599C483.898 326.44 485.301 332.275 491.287 330.171C497.271 328.067 500.249 324.823 500.249 324.823C500.249 324.823 495.953 331.239 497.237 334.466C498.522 337.692 502.305 335.861 504.644 332.609C506.983 329.357 507.613 328.218 507.613 328.218C507.613 328.218 506.019 319.788 505.578 319.615C505.137 319.443 501.523 315.618 501.523 315.618" fill="#0A0C0F"/>
<path d="M692.666 324.033C700.084 335.239 689.07 410.458 667.23 434.885C667.23 434.885 657.822 446.803 641.675 440.788C635.442 438.462 630.635 436.525 627.086 435.026C621.443 432.638 618.969 431.35 618.969 431.35L631.752 321.47L650.345 308.003C650.345 308.003 655.013 308.651 661.299 310.019C672.2 312.387 687.964 316.934 692.665 324.034L692.666 324.033Z" fill="#0A0C0F"/>
<path d="M683.03 410.334C679.323 420.119 674.593 429.611 668.726 436.182C667.863 437.21 657.608 448.839 640.986 442.642C624.918 436.65 618.328 433.246 618.056 433.104C617.327 432.725 616.908 431.935 617.004 431.119L629.786 321.24C629.911 320.153 630.896 319.375 631.982 319.502C633.069 319.629 633.847 320.611 633.72 321.698L621.101 430.187C623.657 431.406 630.367 434.456 642.372 438.932C656.903 444.35 665.33 434.092 665.682 433.653C665.704 433.626 665.731 433.592 665.756 433.566C675.04 423.185 683.721 400.964 688.978 374.123C693.904 348.97 693.883 329.461 691.016 325.13C685.339 316.551 659.54 311.277 650.078 309.968C648.995 309.818 648.238 308.817 648.387 307.734C648.536 306.653 649.537 305.894 650.621 306.043C652.083 306.246 686.501 311.13 694.32 322.942C698.942 329.926 696.806 354.761 692.865 374.882C691.362 382.561 688.185 396.732 683.033 410.333L683.03 410.334Z" fill="#2E3137"/>
<path d="M691.538 325.661C687.992 323.035 683.163 321.011 678.757 322.369C674.103 323.843 671.496 328.841 670.038 333.3C671.51 324.682 676.583 317.988 686.116 319.631C688.857 320.103 691.377 321.021 693.803 322.411C696.152 323.946 693.797 327.337 691.538 325.661Z" fill="#2E3137"/>
<path d="M650.967 444.418C641.368 441.369 638.848 433.631 644.587 425.431C643.208 428.642 642.15 432.442 643.715 435.717C645.171 438.667 648.566 440.138 651.689 440.523C654.81 440.74 653.985 445.302 650.967 444.417L650.967 444.418Z" fill="#2E3137"/>
<path d="M667.852 356.612C667.023 387.412 651.503 395.403 645.55 400.842C641.918 404.157 638.951 413.521 632.752 425.253C630.73 429.077 628.368 433.156 625.524 437.349L625.522 437.355C622.778 441.411 619.591 445.583 615.832 449.748C596.245 471.471 570.9 489.15 551.394 492.02C551.394 492.02 548.122 516.657 526.626 519.239C510.633 521.158 509.002 506.968 509.216 499.577L509.213 499.569C509.291 497.027 509.583 495.296 509.583 495.296L518.309 472.259C518.309 472.259 548.44 440.289 565.383 429.233C565.383 429.233 558.395 424.021 553.846 415.543C553.846 415.543 553.409 415.377 552.681 415.108C549.842 414.046 542.565 411.363 539.361 410.522C539.361 410.522 525.539 416.24 504.814 438.936C504.814 438.936 493.871 453.675 476.72 439.248C469.456 433.142 464.435 426.962 461.377 421.403C459.922 418.759 458.909 416.25 458.318 413.96L458.314 413.952C457.206 409.699 457.537 406.187 459.1 403.897C463.284 397.788 473.911 394.355 482.967 402.45C482.967 402.45 508.315 378.009 518.841 373.6C529.37 369.2 552.192 370.846 552.192 370.846L560.48 354.17C560.48 354.17 557.985 353.718 553.972 352.536L553.966 352.533C545.203 349.957 529.196 343.893 516.148 331.479C516.148 331.479 506.596 330.844 501.745 321.487C501.745 321.487 489.971 315.185 490.168 309.286C490.169 309.158 490.181 309.021 490.196 308.891C490.196 308.891 484.31 306.575 484.53 301.15C484.749 295.726 492.342 299.216 496.616 301.794C500.882 304.376 507.141 305.403 511.838 304.389C516.538 303.368 523.457 306.34 525.763 310.71C525.763 310.71 550.391 320.133 565.937 317.114L581.481 314.1L637.621 317.306C637.621 317.306 668.678 325.81 667.847 356.617L667.852 356.612Z" fill="#0A0C0F"/>
<path d="M549.553 370.7C541.632 362.997 544.991 354.129 557.803 354.155L549.553 370.7Z" fill="#0A0C0F"/>
<path d="M665.875 378.922C661.483 390.515 654.402 396.196 649.519 400.114C648.492 400.937 647.606 401.649 646.886 402.307C644.95 404.074 642.986 408.365 640.499 413.797C635.964 423.7 629.754 437.263 617.306 451.07C596.827 473.785 571.818 490.366 553.088 493.745C551.922 499.305 546.455 518.851 526.862 521.205C520.657 521.95 515.784 520.52 512.379 516.953C505.284 509.518 507.531 495.56 507.63 494.968C507.652 494.84 507.685 494.715 507.731 494.594L516.459 471.554C516.551 471.311 516.69 471.087 516.869 470.897C518.054 469.64 544.951 441.179 562.106 429.07C559.677 426.884 555.611 422.748 552.467 417.134C550.241 416.3 543.136 413.663 539.536 412.621C536.727 413.989 524.057 420.817 506.339 440.207C505.706 441.021 501.151 446.547 493.521 447.439C487.616 448.13 481.534 445.884 475.447 440.765C457.32 425.519 452.654 409.818 457.469 402.778C460.041 399.017 464.454 396.424 469.274 395.838C473.988 395.265 478.755 396.666 482.872 399.799C488.228 394.719 508.588 375.743 518.079 371.773C527.544 367.813 545.873 368.503 551.002 368.786L557.574 355.561C550.641 353.9 531.087 348.156 515.266 333.367C512.788 333.009 504.872 331.236 500.278 322.937C497.76 321.519 488.889 316.123 488.223 310.121C486.171 308.968 482.348 306.131 482.552 301.068C482.651 298.604 483.878 297.439 484.888 296.896C488.147 295.143 493.621 297.668 497.639 300.096C501.406 302.372 507.201 303.359 511.42 302.445C516.897 301.259 524.133 304.388 527.117 309.093C531.057 310.52 552.121 317.778 565.563 315.169L581.109 312.15C581.27 312.119 581.435 312.108 581.6 312.117L637.739 315.324C637.878 315.331 638.015 315.354 638.149 315.391C638.481 315.483 646.386 317.692 654.268 323.841C661.616 329.575 670.282 339.923 669.832 356.662C669.584 365.892 668.063 373.141 665.874 378.92L665.875 378.922ZM549.541 491.314C549.791 490.654 550.382 490.163 551.104 490.058C569.117 487.407 593.947 471.063 614.363 448.419C626.404 435.063 632.468 421.819 636.897 412.149C639.676 406.08 641.684 401.694 644.214 399.383C645.028 398.639 646.006 397.855 647.039 397.026C653.822 391.583 665.176 382.475 665.873 356.557C666.197 344.491 661.509 334.563 651.938 327.048C645.313 321.846 638.49 319.63 637.286 319.265L581.621 316.085L566.318 319.056C550.398 322.148 526.083 312.949 525.056 312.556C524.607 312.384 524.236 312.054 524.012 311.63C522.168 308.136 516.235 305.455 512.257 306.317C506.983 307.46 500.284 306.321 495.591 303.486C491.126 300.79 487.711 299.876 486.764 300.385C486.561 300.495 486.517 301.011 486.509 301.228C486.349 305.199 490.876 307.029 490.921 307.046C491.763 307.379 492.274 308.24 492.16 309.138C491.755 312.34 498.069 317.264 502.681 319.738C503.033 319.927 503.32 320.219 503.504 320.573C507.754 328.774 515.94 329.475 516.286 329.5C516.742 329.535 517.18 329.726 517.511 330.041C535.895 347.528 560.583 352.173 560.832 352.217C561.444 352.328 561.969 352.722 562.248 353.278C562.527 353.834 562.53 354.491 562.252 355.047L553.963 371.725C553.606 372.445 552.849 372.876 552.047 372.819C551.824 372.803 529.576 371.256 519.608 375.427C509.541 379.639 484.594 403.629 484.344 403.871C483.597 404.59 482.422 404.613 481.649 403.923C477.092 399.851 472.664 399.417 469.75 399.77C466.101 400.213 462.648 402.223 460.738 405.016C457.553 409.669 460.831 423.296 477.996 437.734C483.196 442.107 488.249 444.052 493.014 443.511C499.366 442.791 503.196 437.799 503.233 437.75C503.27 437.7 503.315 437.646 503.357 437.601C524.136 414.842 538.026 408.931 538.609 408.69C539.008 408.525 539.451 408.494 539.87 408.605C543.952 409.679 554.122 413.526 554.553 413.689C554.984 413.852 555.37 414.184 555.597 414.607C559.866 422.572 566.504 427.601 566.571 427.651C567.088 428.038 567.384 428.654 567.363 429.3C567.342 429.946 567.009 430.542 566.466 430.895C550.757 441.147 523.057 470.136 520.022 473.332L511.509 495.803C511.288 497.351 509.895 508.625 515.251 514.227C517.747 516.837 521.494 517.862 526.39 517.275C546.133 514.902 549.401 491.988 549.43 491.757C549.451 491.603 549.489 491.456 549.542 491.316L549.541 491.314Z" fill="#2E3137"/>
<path d="M672.698 289.865C685.897 254.935 668.712 216.03 634.315 202.968C599.917 189.907 561.333 207.634 548.134 242.564C534.934 277.494 552.119 316.398 586.517 329.46C620.914 342.522 659.499 324.795 672.698 289.865Z" fill="#0A0C0F"/>
<g opacity="0.3">
<path d="M634.301 202.979C668.708 216.055 685.912 254.948 672.733 289.852C667.567 303.535 658.502 314.572 647.318 322.144C654.558 315.293 660.41 306.714 664.183 296.722C677.361 261.818 660.157 222.926 625.75 209.85C604.824 201.897 582.361 205.329 565 217.086C583.051 199.994 609.741 193.646 634.301 202.979Z" fill="#2E3137"/>
</g>
<path d="M623.054 212.446C653.739 224.098 668.939 259.151 657.002 290.739C645.066 322.327 610.557 338.374 579.829 326.835C554.194 317.207 533.945 280.131 545.881 248.543C557.818 216.954 592.369 200.794 623.054 212.446Z" fill="#2E3137"/>
<g opacity="0.35">
<path d="M623.008 212.434C653.719 224.104 668.952 259.166 657.027 290.749C647.592 315.737 624.004 330.989 599.331 330.529C616.364 325.062 630.938 311.956 637.871 293.594C649.796 262.011 634.563 226.95 603.852 215.279C597.439 212.842 590.856 211.619 584.346 211.498C596.616 207.537 610.151 207.549 623.008 212.435L623.008 212.434Z" fill="#16181D"/>
</g>
<path d="M674.553 290.569C660.99 326.464 621.183 344.739 585.819 331.31C550.454 317.881 532.715 277.754 546.279 241.86C559.842 205.966 599.649 187.69 635.014 201.12C670.38 214.549 688.117 254.675 674.553 290.569ZM549.988 243.268C537.195 277.122 553.895 314.959 587.215 327.611C620.535 340.264 658.05 323.015 670.843 289.161C683.636 255.306 666.936 217.47 633.616 204.817C600.296 192.165 562.78 209.414 549.988 243.268Z" fill="#2E3137"/>
<path d="M682.254 272.231C683.668 260.123 676.95 249.359 667.25 248.189C657.55 247.02 648.541 255.888 647.127 267.997C645.714 280.105 652.431 290.869 662.131 292.039C671.831 293.208 680.841 284.34 682.254 272.231Z" fill="#0A0C0F"/>
<g opacity="0.3">
<path d="M682.242 272.235C681.016 282.842 673.966 290.963 665.722 292.033C669.698 288.447 672.574 282.949 673.318 276.537C674.728 264.422 668.009 253.649 658.318 252.48C657.11 252.335 655.916 252.341 654.744 252.489C658.279 249.295 662.691 247.62 667.249 248.174C676.938 249.35 683.651 260.12 682.241 272.234L682.242 272.235Z" fill="#2E3137"/>
</g>
<path d="M682.522 279.404C681.199 282.908 679.214 286.031 676.679 288.529C672.45 292.7 667.206 294.644 661.913 294.004C651.163 292.706 643.666 280.935 645.199 267.764C646.735 254.595 656.73 244.935 667.481 246.234C672.773 246.873 677.425 250.013 680.578 255.076C683.643 259.996 684.928 266.175 684.193 272.475C683.912 274.893 683.344 277.222 682.52 279.405L682.522 279.404ZM650.551 262.243C649.848 264.103 649.351 266.115 649.104 268.235C647.819 279.26 653.769 289.072 662.368 290.111C666.447 290.604 670.548 289.049 673.912 285.732C677.394 282.298 679.66 277.422 680.291 272.003C680.923 266.582 679.842 261.301 677.245 257.134C674.737 253.107 671.109 250.619 667.03 250.126C660.085 249.287 653.503 254.427 650.552 262.243L650.551 262.243Z" fill="#2E3137"/>
<path d="M664.336 285.336C661.348 284.645 658.771 282.58 656.997 280.087C652.567 273.73 652.444 264.784 656.292 258.129C663.611 245.873 678.776 247.307 683.184 261.085C684.166 264.145 684.383 267.383 684.052 270.525L680.798 270.132C681.556 263.739 679.08 255.894 672.558 253.525C667.477 251.652 662.091 254.987 659.606 259.461C654.757 267.506 655.212 280.367 664.337 285.334L664.336 285.336Z" fill="#2E3137"/>
<path d="M667.621 247.525L664.467 248.377C658.256 225.777 630.921 197.051 589.591 203.942L589.041 200.724C613.298 196.679 630.988 204.612 641.556 211.979C654.178 220.778 663.922 234.066 667.62 247.526L667.621 247.525Z" fill="#2E3137"/>
<path d="M664.477 294.569C657.938 311.87 639.243 329.972 623.471 333.955L622.656 330.785C637.792 326.963 656.573 308.314 662.013 291.701L665.127 292.729C664.926 293.341 664.709 293.956 664.476 294.57L664.477 294.569Z" fill="#2E3137"/>
<g opacity="0.5">
<path d="M562.215 275.479C564.288 260.388 571.024 246.434 582.933 233.738C584.859 230.133 583.675 227.61 581.001 227.003C579.447 226.652 577.81 227.11 576.578 228.11C561.051 240.691 553.946 256.296 555.264 274.924C555.351 276.15 555.932 277.334 556.939 278.048C557.608 278.521 558.329 278.713 559.1 278.632C560.732 278.462 561.994 277.098 562.217 275.478L562.215 275.479Z" fill="#0A0C0F"/>
</g>
<g opacity="0.5">
<path d="M634.135 247.773C629.234 243.664 622.768 243.308 619.693 246.979C616.617 250.65 618.097 256.957 622.998 261.066C627.899 265.175 634.365 265.531 637.441 261.86C640.516 258.189 639.036 251.882 634.135 247.773Z" fill="#0A0C0F"/>
</g>
<g opacity="0.5">
<path d="M626.552 270.75C630.084 270.91 632.862 273.115 632.758 275.677C632.653 278.237 629.739 279.38 626.208 279.219C622.676 279.059 619.866 277.657 619.969 275.097C620.074 272.537 623.021 270.591 626.552 270.75Z" fill="#0A0C0F"/>
</g>
<path d="M488.511 307.849C491.426 304.393 496.821 306.385 500.126 307.979L509.235 312.488L499.425 309.832C497.187 309.278 494.847 308.768 492.723 309.42C492.334 309.552 492.036 309.709 491.809 309.971C491.783 310 491.779 310.026 491.768 310.044C491.788 310.031 491.732 310.138 491.882 309.933C491.307 310.863 490.086 311.152 489.156 310.577C488.226 310.002 487.937 308.781 488.512 307.851L488.511 307.849Z" fill="#2E3137"/>
<path d="M509.466 328.915C509.433 329.003 509.394 329.09 509.346 329.174C509.275 329.301 508.591 330.509 506.25 333.763C504.653 335.983 501.776 338.45 498.918 338.1C497.314 337.903 496.062 336.871 495.396 335.196C494.852 333.83 494.961 332.196 495.372 330.591C494.352 331.098 493.209 331.592 491.942 332.038C487.64 333.551 484.912 331.722 483.882 329.696C482.754 327.474 483.311 324.708 485.129 323.209C480.385 322.879 478.133 319.76 478.053 316.863C477.973 313.96 479.992 311.648 482.75 311.481C486.36 311.263 489.578 309.587 489.611 309.571C490.577 309.061 491.775 309.43 492.286 310.396C492.797 311.362 492.431 312.558 491.467 313.069C491.306 313.154 487.482 315.162 482.989 315.433C482.007 315.493 482.01 316.624 482.014 316.752C482.045 317.907 483.09 319.26 485.929 319.274C489.406 319.293 491.596 318.657 492.846 318.097C493.818 317.469 494.497 317.034 494.579 316.98C495.416 316.443 496.519 316.609 497.162 317.368C497.803 318.126 497.783 319.243 497.116 319.978C496.974 320.135 496.267 320.859 494.75 321.584C492.649 322.943 489.396 325.06 487.698 326.227C487.251 326.534 487.118 327.315 487.414 327.899C488.009 329.07 489.861 328.569 490.628 328.298C496.012 326.405 498.767 323.502 498.794 323.473C499.498 322.718 500.667 322.629 501.475 323.271C502.284 323.912 502.466 325.062 501.893 325.92C500.337 328.251 498.492 332.262 499.075 333.728C499.151 333.919 499.269 334.149 499.401 334.165C500.047 334.245 501.67 333.345 503.034 331.447C505.232 328.392 505.877 327.257 505.883 327.248C506.418 326.297 507.624 325.955 508.576 326.487C509.444 326.972 509.807 328.01 509.465 328.912L509.466 328.915Z" fill="#2E3137"/>
<path d="M553.701 335.656C550.391 344.394 542.676 349.355 542.551 349.433C541.786 349.914 540.776 349.682 540.297 348.916C539.817 348.152 540.048 347.143 540.811 346.663C541.524 346.212 557.95 335.562 549.516 317.836C549.128 317.021 549.475 316.045 550.29 315.657C551.105 315.269 552.081 315.615 552.469 316.431C556.072 324.005 555.656 330.491 553.7 335.657L553.701 335.656Z" fill="#2E3137"/>
<path d="M575.027 345.92C558.069 340.371 541.279 381.924 551.497 392.032L584.407 419.945C584.407 419.945 592.229 427.454 598.895 420.013C605.561 412.57 617.391 383.027 617.391 383.027C617.391 383.027 619.66 379.965 608.157 368.788C596.653 357.61 575.027 345.92 575.027 345.92Z" fill="#0A0C0F"/>
<path d="M619.364 383.501C619.305 383.658 619.236 383.801 619.161 383.932C618.091 386.594 606.998 413.934 600.37 421.334C598.125 423.841 595.511 425.167 592.598 425.276C587.619 425.464 583.613 421.911 583.087 421.425L550.214 393.543C550.177 393.51 550.139 393.476 550.102 393.441C543.276 386.689 546.736 368.974 554.249 356.666C560.596 346.27 568.393 341.668 575.64 344.039C575.752 344.076 575.861 344.123 575.965 344.18C576.858 344.662 597.967 356.128 609.534 367.368C619.321 376.877 620.15 381.422 619.362 383.502L619.364 383.501ZM615.794 381.854C615.794 381.854 615.797 381.85 615.799 381.848C615.798 381.85 615.796 381.852 615.794 381.854ZM615.793 381.856C615.793 381.856 615.794 381.855 615.794 381.854C615.794 381.854 615.794 381.855 615.793 381.856ZM615.792 381.86C615.792 381.86 615.792 381.859 615.793 381.858C615.793 381.858 615.792 381.859 615.792 381.86ZM552.842 390.575L585.689 418.436C585.72 418.462 585.751 418.49 585.78 418.518C585.806 418.543 588.933 421.465 592.471 421.319C594.286 421.244 595.905 420.385 597.421 418.693C603.778 411.596 615.437 382.585 615.553 382.292C615.565 382.261 615.578 382.232 615.592 382.201C615.599 381.746 615.311 378.501 606.778 370.21C596.125 359.858 576.249 348.85 574.247 347.754C569.006 346.163 562.809 350.251 557.633 358.731C550.372 370.627 548.1 385.766 552.841 390.576L552.842 390.575Z" fill="#2E3137"/>
<path d="M583.436 416.54C587.231 418.861 589.864 415.514 591.78 412.062C594.077 408.141 596.187 404.019 598.264 399.907C600.335 395.789 602.364 391.624 604.337 387.47C605.915 383.21 604.809 378.212 601.878 374.745C605.166 378.127 606.63 383.243 605.256 387.843C603.566 392.173 601.846 396.452 600.064 400.732C597.754 406.07 595.635 411.618 592.626 416.671C590.266 420.639 585.346 422.318 581.213 419.817C579.09 418.291 581.237 415.13 583.436 416.539L583.436 416.54Z" fill="#2E3137"/>
<path d="M556.98 352.698C558.293 350.854 560.34 349.778 562.512 349.38C568.174 348.438 573.391 351.871 577.582 354.836C583.158 358.769 588.555 362.984 593.467 367.712C588.147 363.505 582.407 359.856 576.525 356.51C572.295 354.16 566.13 350.65 561.505 353.582C561.113 353.869 560.68 354.264 560.412 354.667C559.137 356.925 555.666 355.109 556.98 352.698Z" fill="#2E3137"/>
<path d="M573.893 383.788L566.289 403.861L563.23 402.702L570.632 383.163L567.933 374.75C567.82 374.397 567.829 374.016 567.96 373.67L575.027 355.013L578.086 356.172L571.221 374.294L573.921 382.707C574.035 383.06 574.024 383.44 573.893 383.786L573.893 383.788Z" fill="#2E3137"/>
<path d="M605.629 409.13C598.728 405.529 602.129 394.385 611.342 397.185C611.342 397.185 647.564 419.096 665.843 393.613C669.477 390.792 674.917 395.203 670.141 403.808C660.588 421.087 636.666 424.294 605.628 409.131L605.629 409.13Z" fill="#0A0C0F"/>
<path d="M673.072 402.207C672.763 403.024 672.368 403.877 671.873 404.768C661.421 423.674 635.704 426.028 604.759 410.909C604.743 410.901 604.728 410.893 604.712 410.886C600.085 408.471 599.18 403.528 600.638 399.934C602.099 396.361 606.153 393.539 611.917 395.291C612.074 395.339 612.224 395.407 612.366 395.491C612.454 395.545 621.336 400.854 632.225 403.034C646.395 405.871 657.165 402.314 664.234 392.459C664.345 392.304 664.478 392.166 664.629 392.048C666.833 390.338 669.68 390.359 671.712 392.102C673.641 393.754 674.938 397.282 673.072 402.208L673.072 402.207ZM606.523 407.363C635.369 421.449 659.082 419.721 668.409 402.849C670.583 398.932 670.339 396.141 669.135 395.109C668.598 394.648 667.909 394.627 667.256 395.037C659.285 405.934 646.875 410.035 631.345 406.896C620.665 404.738 612.077 399.911 610.546 399.018C607.074 398.05 605.048 399.615 604.305 401.433C603.536 403.305 603.899 405.981 606.523 407.363Z" fill="#2E3137"/>
<path d="M632.127 382.854C638.198 386.556 644.139 384.739 647.514 394.054C650.882 403.367 644.836 405.144 642.951 403.031C642.085 402.059 640.998 401.08 640.084 400.307L640.057 400.29C639.112 399.491 638.339 398.904 638.172 398.785C638.213 398.843 638.313 398.951 638.451 399.121C639.376 400.234 642.056 403.878 642.161 408.773C642.184 409.712 641.939 410.639 641.524 411.48C640.459 413.632 637.998 417.79 634.506 418.889C634.506 418.889 631.593 425.209 625.922 426.548C621.538 427.58 620.454 425.702 620.189 424.791C620.109 424.522 620.102 424.338 620.102 424.338C620.102 424.338 615.211 425.45 613.67 422.336C612.136 419.219 616.503 416.245 620.097 415.081C620.097 415.081 623.639 407.079 623.08 404.164C622.521 401.248 618.222 392.449 622.453 388.208C622.453 388.208 617.515 384.811 616.256 380.762C615.924 379.693 615.844 378.587 616.18 377.478C616.233 377.281 616.309 377.08 616.398 376.884C618.819 371.404 626.051 379.152 632.128 382.857L632.127 382.854Z" fill="#0A0C0F"/>
<path d="M649.98 402.028C649.296 403.839 648.104 404.735 647.519 405.083C646.341 405.781 644.996 405.974 643.789 405.698C643.992 406.649 644.122 407.666 644.146 408.736C644.172 409.946 643.881 411.2 643.303 412.365C642.107 414.776 639.616 418.878 635.92 420.477C634.872 422.367 631.723 427.212 626.383 428.473C623.617 429.126 621.447 428.874 619.931 427.726C619.455 427.366 619.088 426.942 618.811 426.504C616.394 426.638 613.29 426.024 611.897 423.202C611.239 421.868 611.197 420.417 611.787 419.034C612.872 416.454 615.883 414.545 618.614 413.499C620.073 410.043 621.388 405.851 621.134 404.526C621.041 404.041 620.765 403.188 620.474 402.287C619.29 398.62 617.414 392.798 619.722 388.576C617.061 386.303 612.277 381.257 614.582 376.08C615.446 374.125 616.786 373.41 617.759 373.156C620.947 372.32 624.692 375.092 628.659 378.029C630.166 379.143 631.724 380.295 633.153 381.169C634.862 382.21 636.631 382.788 638.341 383.346C642.467 384.693 646.732 386.085 649.375 393.388C650.845 397.449 650.669 400.204 649.98 402.029L649.98 402.028ZM636.291 398.058C636.375 397.838 636.498 397.631 636.662 397.446C637.342 396.683 638.492 396.563 639.318 397.171C639.445 397.265 642.427 399.478 644.429 401.719C644.547 401.851 645.015 401.955 645.486 401.676C646.503 401.073 647.156 398.889 645.648 394.72C643.667 389.244 640.921 388.348 637.122 387.108C635.285 386.508 633.202 385.828 631.098 384.544C629.515 383.579 627.885 382.371 626.308 381.205C623.846 379.384 620.128 376.631 618.782 376.985C618.542 377.049 618.341 377.402 618.214 377.689C616.775 380.942 621.734 385.302 623.58 386.581C624.062 386.915 624.375 387.446 624.429 388.03C624.483 388.613 624.277 389.189 623.863 389.606C621.36 392.118 623.168 397.734 624.249 401.087C624.607 402.196 624.89 403.074 625.028 403.796C625.673 407.155 622.543 414.456 621.909 415.885C621.682 416.397 621.248 416.787 620.714 416.96C618.24 417.764 615.974 419.32 615.444 420.58C615.287 420.967 615.329 421.214 615.454 421.463C616.248 423.073 619.627 422.412 619.66 422.404C620.265 422.272 620.903 422.335 621.377 422.736C621.839 423.129 622.102 423.619 622.083 424.217C622.103 424.299 622.165 424.469 622.354 424.598C622.547 424.73 623.342 425.119 625.46 424.619C630.103 423.524 632.683 418.106 632.709 418.053C632.943 417.553 633.377 417.169 633.904 417.003C636.756 416.103 638.942 412.222 639.75 410.596C640.047 409.999 640.196 409.381 640.184 408.807C640.074 403.767 636.739 400.152 636.705 400.116C636.173 399.55 636.033 398.745 636.293 398.057L636.291 398.058Z" fill="#2E3137"/>
<path d="M623.375 386.44C625.476 388.226 627.613 390.008 629.843 391.649C627.071 391.207 624.337 390.6 621.593 389.964C620.493 389.709 619.806 388.61 620.062 387.513C620.365 386.049 622.268 385.447 623.373 386.44L623.375 386.44Z" fill="#2E3137"/>
<path d="M634.565 421.107C632.374 421.234 630.321 420.899 628.419 419.622C626.235 418.129 625.032 415.315 626.595 412.969C628.255 410.532 630.769 409.616 633.063 408.092C633.728 407.631 634.472 407.188 634.766 406.391C634.802 408.818 628.538 412.958 629.663 415.103C629.713 415.156 629.747 415.16 629.826 415.289C630.47 416.954 632.693 417.247 634.296 417.16C636.868 417.094 637.122 420.84 634.566 421.106L634.565 421.107Z" fill="#2E3137"/>
<path d="M618.086 424.329C618.944 419.903 624.479 417.799 628.328 416.753C627.164 417.549 625.925 418.492 624.91 419.453C623.579 420.823 622.04 422.452 622 424.408C622.012 424.427 622.024 424.573 622.053 424.38C621.964 426.988 618.128 426.944 618.086 424.331L618.086 424.329Z" fill="#2E3137"/>
<path d="M620.012 413.117L625.832 414.923L620.144 417.071L620.012 413.117Z" fill="#2E3137"/>
<g opacity="0.3">
<path d="M638.427 399.115C639.354 400.229 642.039 403.876 642.147 408.773C642.171 409.712 641.926 410.639 641.511 411.48C640.446 413.633 637.983 417.791 634.488 418.888C634.488 418.888 631.575 425.209 625.898 426.546C621.509 427.576 620.423 425.697 620.158 424.785L620.848 422.308C625.916 425.406 629.572 418.194 629.572 418.194C626.49 416.619 627.915 413.98 627.915 413.98C629.386 417.794 635.76 414.277 637.108 408.85C638.457 403.423 635.727 397.146 635.727 397.146L638.427 399.115Z" fill="#2E3137"/>
</g>
<g opacity="0.3">
<path d="M632.144 382.847C638.211 386.547 644.146 384.737 647.523 394.038C650.893 403.336 644.854 405.108 642.969 402.997C642.103 402.026 641.017 401.049 640.103 400.276C647.676 405.127 642.213 391.093 638.576 389.711C634.94 388.329 629.155 385.958 623.701 381.096C618.242 376.233 616.285 380.748 616.285 380.748L616.207 377.469C616.26 377.273 616.335 377.072 616.424 376.876C618.84 371.407 626.07 379.146 632.144 382.847Z" fill="#2E3137"/>
</g>
<path d="M534.477 414.71C534.193 415.461 533.391 415.907 532.587 415.724C531.706 415.524 531.155 414.648 531.355 413.767C533.596 403.911 532.676 395.704 528.622 389.377C522.983 380.575 513.033 378.39 512.934 378.369C512.051 378.183 511.484 377.318 511.668 376.434C511.851 375.554 512.716 374.984 513.598 375.167C514.059 375.262 524.945 377.617 531.349 387.574C535.914 394.672 536.989 403.729 534.541 414.492C534.525 414.568 534.502 414.642 534.476 414.711L534.477 414.71Z" fill="#2E3137"/>
<path d="M579.794 481.903C579.516 482.636 578.741 483.083 577.945 482.926C552.029 477.782 544.458 446.906 544.149 445.594C543.941 444.717 544.485 443.836 545.364 443.627C546.242 443.42 547.124 443.963 547.331 444.841C547.403 445.143 554.746 474.987 578.582 479.718C579.468 479.893 580.043 480.755 579.868 481.64C579.85 481.731 579.826 481.819 579.794 481.903Z" fill="#2E3137"/>
<path d="M667.682 371.567C667.566 371.874 667.356 372.149 667.063 372.345C666.313 372.847 665.297 372.645 664.794 371.896C654.999 357.264 639.176 364.092 638.507 364.39C637.683 364.757 636.716 364.386 636.348 363.561C635.981 362.736 636.352 361.77 637.176 361.401C637.366 361.318 656.202 353.183 667.511 370.077C667.817 370.534 667.862 371.089 667.681 371.567L667.682 371.567Z" fill="#2E3137"/>
<path d="M625.653 377.289C629.833 373.789 632.998 369.087 634.588 363.858C636.296 358.299 636.23 352.423 635.75 346.54C640.274 354.898 640.276 365.853 634.834 373.829C632.984 376.58 630.621 379.025 627.716 380.671C625.461 381.789 623.697 378.822 625.653 377.29L625.653 377.289Z" fill="#2E3137"/>
<path d="M570.366 344.057C573.221 339.595 576.476 334.97 581.31 332.563C580.289 333.378 579.461 334.36 578.72 335.388C576.579 338.465 575.089 342.082 574 345.631C573.028 348.456 568.97 346.704 570.365 344.057L570.366 344.057Z" fill="#2E3137"/>
<path d="M484.871 402.996C483.287 406.747 483.935 411.21 485.607 414.869C484.101 413.174 482.881 411.274 482.069 409.13C481.232 406.863 480.749 404.333 481.067 401.894C481.872 399.404 485.521 400.458 484.871 402.996Z" fill="#2E3137"/>
<path d="M551.083 494.465C546.261 493.18 542.135 489.42 540.652 484.663C540.435 484.035 540.322 483.375 540.158 482.747C540.752 483.899 541.377 485.031 542.234 485.994C543.997 488.129 546.449 489.575 549.097 490.216C549.864 490.384 550.797 490.561 551.551 490.531C554.843 490.425 554.292 495.3 551.082 494.464L551.083 494.465Z" fill="#2E3137"/>
<path d="M564.404 427.513L577.998 422.065L566.361 430.956C565.484 431.626 564.23 431.458 563.559 430.582C562.753 429.56 563.194 427.98 564.404 427.513Z" fill="#2E3137"/>
<path d="M551.939 416.059C551.585 412.082 551.585 408.105 551.954 404.154C552.89 407.885 554.175 411.544 555.761 415.02C556.93 417.937 552.408 419.166 551.94 416.057L551.939 416.059Z" fill="#2E3137"/>
<path d="M559.655 354.855C559.371 355.604 558.647 356.136 557.799 356.134C552.556 356.124 548.753 357.766 547.628 360.529C547.615 360.564 547.601 360.598 547.587 360.633C546.652 363.103 547.896 366.325 550.935 369.28C551.718 370.043 551.736 371.297 550.974 372.081C550.212 372.866 548.958 372.882 548.173 372.12C543.963 368.027 542.37 363.225 543.883 359.232C543.908 359.166 543.933 359.101 543.96 359.036C545.741 354.662 550.788 352.16 557.806 352.174C558.901 352.176 559.785 353.064 559.783 354.158C559.782 354.404 559.737 354.639 559.655 354.855Z" fill="#2E3137"/>
<g opacity="0.3">
<path d="M692.625 324.098C700.076 335.316 689.18 410.505 667.345 434.889C667.345 434.889 657.942 446.789 641.756 440.746C635.508 438.409 630.689 436.464 627.131 434.958L633.018 427.476C632.732 426.37 634.478 422.79 635.164 421.796C635.848 420.808 637.501 420.162 637.501 420.162C637.501 420.162 644.455 419.019 645.055 418.687C636.901 423.131 636.974 426.658 643.095 429.508C651.24 430.173 662.238 421.677 671.488 404.31C684.296 380.269 690.98 323.133 675.371 321.954C659.76 320.782 656.422 328.18 656.422 328.18L648.53 322.73L661.178 310.031C672.102 312.418 687.902 316.993 692.624 324.101L692.625 324.098Z" fill="#2E3137"/>
</g>
<g opacity="0.3">
<path d="M632.753 425.387L625.538 437.465L625.535 437.471C622.795 441.52 619.612 445.685 615.856 449.841C596.284 471.519 570.94 489.144 551.414 491.978C551.414 491.978 548.183 516.598 526.665 519.14C510.656 521.029 508.997 506.843 509.198 499.456C509.473 500.127 522.797 532.112 540.866 484.515C540.866 484.515 556.631 483.685 575.685 469.516C594.74 455.347 618.96 425.612 618.96 425.612C618.96 425.612 625.065 426.865 625.471 426.776C625.876 426.686 632.75 425.388 632.75 425.388L632.753 425.387Z" fill="#2E3137"/>
</g>
<g opacity="0.3">
<path d="M552.392 408.271L552.7 415.199C549.858 414.133 542.572 411.441 539.366 410.595C539.366 410.595 525.547 416.281 504.854 438.912C504.854 438.912 493.933 453.613 476.748 439.174C469.47 433.062 464.435 426.88 461.366 421.322L458.292 413.883C458.634 414.479 474.018 440.839 492.634 431.255C511.465 421.565 523.013 396.297 533.479 397.245C543.945 398.195 552.394 408.273 552.394 408.273L552.392 408.271Z" fill="#2E3137"/>
</g>
<g opacity="0.3">
<path d="M549.83 389.672C549.83 389.672 575.106 419.61 590.191 402.595C605.276 385.581 599.134 373.77 599.134 373.77C599.134 373.77 604.44 376.663 604.915 380.325C605.39 383.989 610.358 392.42 615.722 387.551C615.722 387.551 612.302 395.122 612.028 395.737C611.755 396.351 605.7 399.073 604.533 399.135C603.367 399.197 601.09 401.728 601.596 403.073C602.102 404.419 602.516 406.396 603.409 407.315C604.301 408.235 614.101 412.36 614.101 412.36C614.101 412.36 605.978 424.298 598.824 427.212C591.67 430.126 586.932 427.654 578.411 421.049C569.89 414.444 549.8 392.322 549.8 392.322" fill="#2E3137"/>
</g>
<g opacity="0.3">
<path d="M648.948 405.688C648.948 405.688 644.069 417.108 656.429 415.401C656.429 415.401 649.369 417.047 649.059 417.656C648.75 418.266 638.168 418.716 638.168 418.716C638.168 418.716 639.858 415.734 640.182 413.386C640.506 411.038 641.897 403.929 641.897 403.929" fill="#2E3137"/>
</g>
<g opacity="0.3">
<path d="M541.484 338.44C556.542 344.154 575.155 339.108 575.155 339.108L568.803 345.906L559.723 352.256L554.005 352.522L553.999 352.519C545.234 349.934 529.22 343.858 516.152 331.453C516.152 331.453 506.601 330.802 501.734 321.461C501.734 321.461 489.952 315.155 490.138 309.271L493.162 306.417C493.162 306.417 495.608 315.572 503.076 316.804C503.076 316.804 515.023 328.065 521.755 322.547C521.755 322.547 526.426 332.728 541.484 338.442L541.484 338.44Z" fill="#2E3137"/>
</g>
<g opacity="0.3">
<path d="M612.847 373.711C626.409 370.907 636.211 364.815 636.728 350.606C636.728 350.606 636.289 366.334 633.322 371.092C630.356 375.851 627.133 378.695 627.133 378.695L619.887 374.214L613.994 375.104" fill="#2E3137"/>
</g>
<g opacity="0.3">
<path d="M610.857 396.469L621.809 401.465C621.809 401.465 620.342 394.174 620.499 393.458C620.657 392.742 621.319 387.478 621.319 387.478L618.223 384.219L614.815 389.839" fill="#2E3137"/>
</g>
<g opacity="0.3">
<path d="M633.036 383.284C633.036 383.284 645.19 389.954 650.146 380.716C655.1 371.479 657.682 348.086 651.19 340.455C644.699 332.824 619.799 341.415 602.67 333.412C602.67 333.412 634.88 335.245 648.593 322.795C648.593 322.795 662.298 330.005 666.587 345.369C670.876 360.735 661.785 384.238 661.785 384.238C661.785 384.238 656.957 397.835 665.927 393.639C665.927 393.639 658.725 401.327 655.651 402.675C652.577 404.022 647.691 406.291 647.691 406.291C647.691 406.291 648.304 400.908 648.557 400.33C648.81 399.752 647.497 394.986 646.939 393.875C646.382 392.764 643.68 389.044 643.68 389.044L640.957 386.55" fill="#2E3137"/>
</g>
<path d="M348.379 244.258C348.533 245.668 348.774 247.077 349.098 248.478C349.844 251.695 351.045 254.864 352.732 257.896C362.451 275.383 384.503 281.681 401.991 271.965C415.916 264.228 422.746 248.668 420.045 233.82C419.354 230.019 418.04 226.268 416.061 222.706C412.97 217.144 408.632 212.714 403.589 209.574C402.779 209.066 401.948 208.593 401.102 208.154C396.549 205.792 391.534 204.416 386.407 204.128C386.363 204.126 386.317 204.122 386.272 204.121C385.959 204.104 385.645 204.091 385.329 204.084C384.703 204.067 384.077 204.067 383.451 204.081C379.199 204.188 374.918 205.05 370.811 206.72C369.454 207.269 368.114 207.908 366.803 208.637C366.52 208.795 366.24 208.953 365.964 209.119C365.797 209.217 365.631 209.319 365.468 209.42C353.201 216.921 346.894 230.686 348.379 244.258Z" fill="#16181D"/>
<path d="M401.992 271.964C384.503 281.68 362.452 275.383 352.734 257.894C351.049 254.863 349.847 251.695 349.101 248.478C348.776 247.077 348.535 245.668 348.382 244.258C348.107 241.747 348.1 239.228 348.346 236.743C348.358 236.858 348.37 236.972 348.382 237.087C348.537 238.498 348.776 239.907 349.101 241.306C349.847 244.524 351.049 247.691 352.734 250.723C362.452 268.211 384.504 274.509 401.992 264.792C412.781 258.797 419.309 248.107 420.446 236.689C421.838 250.636 415.021 264.723 401.992 271.964Z" fill="#2E3137"/>
<path d="M376.692 222.757C380.539 222.233 383.467 220.405 383.231 218.675C382.995 216.945 379.685 215.967 375.838 216.492C371.991 217.016 369.063 218.843 369.299 220.574C369.535 222.304 372.845 223.281 376.692 222.757Z" fill="#16181D"/>
<path d="M362.36 244.272C363.35 248.686 361.995 252.258 359.336 252.252C356.676 252.246 353.478 248.775 352.49 244.361C351.501 239.948 353.096 236.261 355.755 236.268C358.415 236.275 361.372 239.858 362.361 244.272H362.36Z" fill="#2E3137"/>
<path d="M364.747 241.063C368.051 244.809 366.759 253.455 361.197 254.203C361.012 254.214 360.971 253.933 361.153 253.893C365.789 252.281 366.501 245.143 364.426 241.284C364.312 241.088 364.605 240.885 364.747 241.065V241.063Z" fill="#0A0C0F"/>
<path d="M404.439 218.881C404.547 217.188 403.027 215.713 401.043 215.585C399.058 215.458 397.362 216.727 397.253 218.42C397.145 220.112 398.665 221.588 400.649 221.715C402.634 221.842 404.33 220.573 404.439 218.881Z" fill="#2E3137"/>
<path d="M402.579 220.619C402.997 219.488 402.2 218.152 400.799 217.633C399.399 217.115 397.924 217.611 397.506 218.741C397.087 219.871 397.884 221.208 399.285 221.726C400.686 222.245 402.16 221.749 402.579 220.619Z" fill="#16181D"/>
<path d="M400.747 221.663C402.841 221.616 404.837 219.721 403.862 217.721C402.959 215.915 400.336 215.425 398.68 216.499C397.476 217.219 396.989 218.777 397.675 220.05C397.763 220.214 397.519 220.365 397.41 220.219C395.058 216.686 399.841 213.677 402.996 215.455C406.871 217.509 404.886 222.591 400.73 222.053C400.497 222.027 400.515 221.673 400.746 221.664L400.747 221.663Z" fill="#0A0C0F"/>
<path d="M396.487 216.677C394.167 221.097 400.018 224.406 403.694 222.357C404.906 221.744 405.877 220.59 406.061 219.155C406.078 218.969 406.37 218.98 406.375 219.165C406.53 222.615 402.517 224.635 399.479 223.821C396.225 223.221 393.78 219.271 396.169 216.454C396.317 216.272 396.608 216.479 396.487 216.677Z" fill="#0A0C0F"/>
<path d="M410.669 227.313C404.148 229.087 404.055 237.69 408.568 241.697C410.011 243.051 411.906 243.961 413.938 244.112C414.025 244.117 414.091 244.191 414.086 244.278C414.081 244.357 414.016 244.419 413.938 244.425C412.88 244.491 411.798 244.319 410.787 243.959C404.476 241.815 401.77 232.242 407.598 228.076C408.504 227.472 409.53 227.04 410.598 226.931C410.705 226.92 410.802 226.996 410.814 227.103C410.825 227.199 410.762 227.287 410.67 227.312L410.669 227.313Z" fill="#0A0C0F"/>
<path d="M414.017 241.773C416.832 241.274 418.626 238.116 418.024 234.719C417.421 231.322 414.651 228.973 411.836 229.471C409.021 229.97 407.227 233.128 407.829 236.525C408.431 239.922 411.202 242.272 414.017 241.773Z" fill="#2E3137"/>
<path d="M413.111 240.952C411.27 240.974 409.397 239.721 408.435 237.615C407.156 234.81 407.976 231.553 410.267 230.339C410.59 230.167 410.925 230.045 411.267 229.972C412.62 230.523 413.831 231.68 414.565 233.288C415.864 236.137 415.199 239.41 413.11 240.953L413.111 240.952Z" fill="#16181D"/>
<path d="M417.573 233.528C416.034 230.671 411.733 229.191 409.521 232.061C407.52 234.713 408.959 238.799 411.822 240.235C413.778 241.299 416.38 240.776 417.609 238.843C417.711 238.679 417.97 238.833 417.88 239C414.783 244.315 407.518 240.416 407.546 235.017C407.582 228.541 415.534 227.824 417.92 233.353C418.015 233.572 417.691 233.732 417.573 233.528Z" fill="#0A0C0F"/>
<path d="M370.476 233.987C370.03 243.145 379.95 247.846 387.322 242.979C389.546 241.515 391.291 239.302 392.174 236.725C392.225 236.541 392.527 236.623 392.475 236.811C392.158 238.176 391.564 239.478 390.78 240.656C386.671 246.845 377.015 248.008 372.225 241.976C370.418 239.725 369.629 236.725 370.09 233.946C370.128 233.712 370.491 233.75 370.476 233.989V233.987Z" fill="#0A0C0F"/>
<path d="M388.721 235.261C389.42 231.312 386.784 227.544 382.835 226.846C378.886 226.147 375.118 228.783 374.419 232.732C373.721 236.681 376.356 240.449 380.305 241.148C384.255 241.846 388.023 239.211 388.721 235.261Z" fill="#2E3137"/>
<path d="M387.989 236.476C387.314 238.959 385.081 240.945 382.161 241.347C378.274 241.881 374.638 239.405 374.041 235.815C373.955 235.309 373.937 234.806 373.979 234.317C375.161 232.734 377.025 231.595 379.253 231.286C383.201 230.744 386.915 233.019 387.989 236.476Z" fill="#16181D"/>
<path d="M380.685 227.27C376.184 228.203 373.237 233.561 375.671 237.583C377.179 240.134 380.496 241.183 383.28 240.271C387.707 238.999 390.109 233.304 387.172 229.497C387.049 229.346 387.288 229.151 387.413 229.297C392.382 235.178 385.64 243.573 378.647 241.213C373.349 239.445 372.305 232.632 376.301 228.968C377.498 227.853 379.02 227.099 380.616 226.887C380.856 226.854 380.92 227.218 380.685 227.27Z" fill="#0A0C0F"/>
<path d="M401.977 254.813C403.681 255.71 405.012 257.02 405.756 258.691C407.104 261.72 406.149 265.066 403.684 268.013C402.067 269.946 399.771 271.631 396.981 272.76C389.94 275.613 382.423 273.86 380.19 268.844C379.359 266.978 379.377 264.922 380.091 262.931C381.294 259.57 385.442 258.557 389.863 256.765" fill="#16181D"/>
<path d="M405.933 258.612C407.467 261.561 406.415 265.165 404.514 267.69C399.83 273.96 389.919 276.876 383.053 272.57C381.731 271.661 380.623 270.397 380.046 268.908C380.015 268.828 380.054 268.736 380.135 268.705C380.211 268.676 380.296 268.71 380.332 268.781C381.721 271.545 384.685 273.056 387.645 273.485C393.585 274.325 400.047 271.85 403.796 267.147C405.656 264.82 406.75 261.656 405.578 258.771C405.48 258.552 405.833 258.393 405.933 258.612Z" fill="#0A0C0F"/>
<path d="M394.912 271.045C400.491 269.569 404.144 265.085 403.071 261.03C401.998 256.975 396.606 254.884 391.027 256.36C385.448 257.837 381.795 262.321 382.867 266.376C383.94 270.431 389.333 272.521 394.912 271.045Z" fill="#2E3137"/>
<path d="M393.46 271.319C398.276 270.456 401.739 267.295 401.194 264.259C400.65 261.223 396.305 259.461 391.49 260.324C386.674 261.187 383.212 264.348 383.756 267.384C384.3 270.42 388.645 272.182 393.46 271.319Z" fill="#16181D"/>
<path d="M386.02 270.734C381.746 268.751 381.427 263.744 384.223 260.324C387.95 255.658 395.393 253.491 400.672 256.78C406.956 261.325 401.897 268.826 396.073 270.736C395.886 270.803 395.778 270.528 395.955 270.447C397.704 269.637 399.329 268.544 400.568 267.102C403.19 264.269 403.678 259.841 400.136 257.588C396.125 255.131 390.609 256.271 386.97 258.964C382.939 261.786 381.253 267.556 386.201 270.391C386.417 270.505 386.234 270.845 386.02 270.735V270.734Z" fill="#0A0C0F"/>
<path d="M370.594 220.421C369.323 219.585 368.376 218.453 367.921 217.081C367.094 214.595 368.102 212.037 370.266 209.909C371.687 208.513 373.622 207.365 375.902 206.691C381.659 204.988 387.437 206.944 388.806 211.06C389.316 212.592 389.144 214.206 388.43 215.718C387.225 218.27 384.438 220.381 380.824 221.451" fill="#16181D"/>
<path d="M367.736 217.143C366.718 214.696 367.824 211.896 369.518 210.037C373.714 205.38 381.771 203.878 386.884 207.857C387.855 208.689 388.63 209.784 388.956 211.011C388.978 211.096 388.929 211.181 388.845 211.203C388.768 211.223 388.689 211.182 388.659 211.11C388.203 210.002 387.437 209.056 386.477 208.375C381.533 205.035 374.248 206.565 370.182 210.646C368.546 212.313 367.443 214.672 368.107 217.02C368.178 217.247 367.818 217.367 367.737 217.143H367.736Z" fill="#0A0C0F"/>
<path d="M379.325 220.043C383.826 219.311 387.044 216.065 386.512 212.793C385.979 209.522 381.899 207.464 377.398 208.196C372.896 208.928 369.679 212.174 370.211 215.445C370.743 218.717 374.824 220.775 379.325 220.043Z" fill="#2E3137"/>
<path d="M379.27 216.889C383.123 216.581 386.089 214.361 385.895 211.931C385.7 209.501 382.418 207.782 378.565 208.09C374.712 208.399 371.746 210.619 371.94 213.049C372.135 215.478 375.417 217.198 379.27 216.889Z" fill="#16181D"/>
<path d="M384.389 209.092C387.656 210.948 387.518 215.053 385.05 217.518C381.731 220.948 375.651 222.094 371.707 219.053C367.051 215.003 371.674 209.301 376.451 208.32C376.642 208.273 376.722 208.557 376.54 208.62C375.111 209.138 373.761 209.876 372.692 210.916C370.471 212.88 369.76 216.342 372.32 218.3C375.863 220.907 381.359 219.84 384.388 216.88C386.675 214.767 386.872 211.264 384.176 209.416C383.975 209.28 384.187 208.964 384.39 209.092H384.389Z" fill="#0A0C0F"/>
<path d="M360.735 250.66C362.651 250.01 363.194 246.502 361.946 242.825C360.699 239.148 358.134 236.695 356.217 237.345C354.301 237.995 353.758 241.503 355.006 245.18C356.253 248.857 358.818 251.31 360.735 250.66Z" fill="#16181D"/>
<path d="M352.507 238.402C354.087 234.986 358.046 235.967 360.121 238.302C363.024 241.489 364.674 246.794 362.281 250.724C360.863 252.951 357.913 252.851 356.037 251.294C354.268 249.966 353.12 247.945 352.479 245.882C352.42 245.695 352.704 245.596 352.775 245.778C353.955 248.548 356.688 252.418 360.092 251.352C361.944 250.546 362.422 248.287 362.373 246.387C362.288 243.675 361.243 240.963 359.448 238.928C357.701 236.812 354.459 235.78 352.851 238.584C352.734 238.796 352.402 238.612 352.508 238.401L352.507 238.402Z" fill="#0A0C0F"/>
<path d="M384.462 278.065C371.179 278.065 358.276 271.057 351.38 258.647C349.661 255.556 348.387 252.252 347.592 248.828C347.255 247.377 347.002 245.896 346.841 244.427C345.257 229.948 352.252 215.687 364.659 208.099C364.829 207.995 365.005 207.886 365.184 207.782C365.458 207.618 365.75 207.452 366.044 207.287C367.402 206.532 368.809 205.86 370.229 205.285C374.435 203.576 378.871 202.65 383.413 202.535C384.08 202.518 384.738 202.52 385.372 202.537C385.699 202.544 386.028 202.558 386.357 202.575L386.439 202.58C391.8 202.881 397.098 204.333 401.817 206.781C402.699 207.238 403.572 207.736 404.413 208.262C409.806 211.622 414.304 216.356 417.416 221.954C419.434 225.587 420.831 229.487 421.571 233.544C424.467 249.468 416.902 265.452 402.746 273.318C396.951 276.538 390.667 278.066 384.463 278.066L384.462 278.065ZM384.358 205.619C384.071 205.619 383.78 205.623 383.489 205.631C379.324 205.736 375.255 206.585 371.395 208.156C370.087 208.684 368.797 209.302 367.553 209.992C367.291 210.139 367.022 210.291 366.758 210.448C366.586 210.548 366.432 210.642 366.28 210.736C354.885 217.706 348.465 230.797 349.92 244.09C350.067 245.436 350.299 246.795 350.608 248.127C351.337 251.27 352.507 254.304 354.086 257.143C360.416 268.535 372.264 274.968 384.456 274.969C390.151 274.969 395.919 273.566 401.24 270.61C414.236 263.389 421.182 248.715 418.522 234.096C417.844 230.372 416.561 226.793 414.707 223.456C411.85 218.318 407.723 213.971 402.771 210.887C401.998 210.405 401.199 209.948 400.39 209.529C396.056 207.28 391.19 205.948 386.321 205.674L386.241 205.669C385.89 205.65 385.592 205.638 385.292 205.631C384.984 205.622 384.673 205.618 384.357 205.618L384.358 205.619Z" fill="#0A0C0F"/>
</g>
</svg>
