<svg width="27" height="22" viewBox="0 0 27 22" fill="none" xmlns="http://www.w3.org/2000/svg">
<path d="M26.8374 4.37234V14.8881C26.8374 17.0135 25.1259 18.7383 23.0167 18.7383H22.1459C22.0955 18.7383 22.0603 18.6977 22.0603 18.652V5.51877C22.0603 5.42239 21.9797 5.3463 21.8891 5.3463H12.5112L18.5165 8.71965C18.597 8.76531 18.6524 8.85154 18.6524 8.94793V21.7413C18.6524 21.9442 18.4359 22.071 18.2648 21.9696L12.5112 18.7383H4.75913C2.64997 18.7383 0.938477 17.0135 0.938477 14.8881V4.37234C0.938477 2.24688 2.64997 0.522156 4.75913 0.522156H23.0217C25.1309 0.522156 26.8374 2.24688 26.8374 4.37234Z" fill="#ECBA60"/>
</svg>
